<svg width="25" height="20" viewBox="0 0 25 20" fill="none" xmlns="http://www.w3.org/2000/svg">
<g clip-path="url(#clip0_795_15577)">
<path d="M22.8172 10.4975C25.0609 8.09488 25.0609 4.20383 22.8172 1.80116C20.8316 -0.325097 17.7023 -0.60151 15.4188 1.14627L15.3553 1.19305C14.7834 1.63106 14.6524 2.48156 15.0614 3.08967C15.4705 3.69778 16.2647 3.84236 16.8326 3.40436L16.8961 3.35758C18.1709 2.38375 19.9142 2.53684 21.0182 3.72329C22.2692 5.06283 22.2692 7.23162 21.0182 8.57116L16.5625 13.351C15.3116 14.6905 13.2863 14.6905 12.0354 13.351C10.9274 12.1645 10.7844 10.2977 11.6938 8.93687L11.7375 8.86883C12.1466 8.25647 12.0115 7.40597 11.4437 6.97221C10.8758 6.53846 10.0776 6.67879 9.6725 7.2869L9.62882 7.35494C7.99268 9.79588 8.25081 13.1469 10.2364 15.2731C12.4801 17.6758 16.1138 17.6758 18.3575 15.2731L22.8172 10.4975ZM2.1828 9.50246C-0.0609333 11.9051 -0.0609333 15.7962 2.1828 18.1988C4.1684 20.3251 7.29772 20.6015 9.58116 18.8537L9.6447 18.8069C10.2166 18.3689 10.3476 17.5184 9.93857 16.9103C9.52954 16.3022 8.73529 16.1576 8.16741 16.5956L8.10387 16.6424C6.82911 17.6162 5.08575 17.4632 3.98176 16.2767C2.73083 14.9329 2.73083 12.7641 3.98176 11.4246L8.43745 6.64902C9.68839 5.30948 11.7137 5.30948 12.9646 6.64902C14.0726 7.83547 14.2156 9.70232 13.3062 11.0674L13.2625 11.1354C12.8534 11.7478 12.9885 12.5983 13.5563 13.032C14.1242 13.4658 14.9224 13.3255 15.3275 12.7174L15.3712 12.6493C17.0073 10.2041 16.7492 6.85314 14.7636 4.72689C12.5199 2.32422 8.8862 2.32422 6.64247 4.72689L2.1828 9.50246Z" fill="#1668C7"/>
</g>
<defs>
<clipPath id="clip0_795_15577">
<rect width="24" height="20" fill="white" transform="translate(0.5)"/>
</clipPath>
</defs>
</svg>
